<svg xmlns="http://www.w3.org/2000/svg" viewBox="0 0 64 64" role="img" aria-label="Dismiss unit">
  <defs>
    <linearGradient id="dismiss-bg" x1="14" y1="10" x2="50" y2="54" gradientUnits="userSpaceOnUse">
      <stop offset="0" stop-color="#f4d2b0"/>
      <stop offset="1" stop-color="#b96a62"/>
    </linearGradient>
    <linearGradient id="dismiss-shadow" x1="24" y1="14" x2="42" y2="48" gradientUnits="userSpaceOnUse">
      <stop offset="0" stop-color="#6a272f"/>
      <stop offset="1" stop-color="#2c1720"/>
    </linearGradient>
  </defs>
  <circle cx="32" cy="32" r="29" fill="#261b24"/>
  <circle cx="32" cy="32" r="24" fill="url(#dismiss-bg)" opacity=".18"/>
  <path d="M25 48h14c4.2 0 7.6-3.4 7.6-7.6V27.6c0-3.9-3.1-7-7-7h-2.8v-4.4c0-1.7-1.4-3.1-3.1-3.1h-3.4c-1.7 0-3.1 1.4-3.1 3.1v4.4h-2.8c-3.9 0-7 3.1-7 7v12.8c0 4.2 3.4 7.6 7.6 7.6Z" fill="url(#dismiss-shadow)"/>
  <path d="M30 20v-3.4c0-.5.4-.9.9-.9h2.2c.5 0 .9.4.9.9V20" fill="none" stroke="#f2c38c" stroke-width="3" stroke-linecap="round"/>
  <path d="M22 29c0-2.1 1.7-3.8 3.8-3.8h12.4c2.1 0 3.8 1.7 3.8 3.8v10.6c0 2.4-2 4.4-4.4 4.4H26.4c-2.4 0-4.4-2-4.4-4.4V29Z" fill="#f0c69a"/>
  <path d="M26 31h12M26 36h12M26 41h8" stroke="#6f3030" stroke-width="3" stroke-linecap="round"/>
  <path d="m19 18 26 28M45 18 19 46" stroke="#f2ebe4" stroke-width="5" stroke-linecap="round"/>
  <path d="m19 18 26 28M45 18 19 46" stroke="#9d2f38" stroke-width="3" stroke-linecap="round"/>
</svg>
